<svg xmlns="http://www.w3.org/2000/svg" viewBox="0 0 1200 900" role="img" aria-labelledby="title desc">
  <title id="title">수집된 이름들</title>
  <desc id="desc">실종자 이름이 적힌 우편함 벽을 표현한 표지 이미지</desc>
  <defs>
    <linearGradient id="bg" x1="0" y1="0" x2="1" y2="1">
      <stop offset="0%" stop-color="#182126"/>
      <stop offset="55%" stop-color="#46555d"/>
      <stop offset="100%" stop-color="#95a4aa"/>
    </linearGradient>
  </defs>
  <rect width="1200" height="900" fill="url(#bg)"/>
  <g transform="translate(680 170)">
    <rect width="360" height="420" rx="20" fill="#314148" stroke="#9eb0b7" stroke-opacity="0.35"/>
    <g fill="#55676f" stroke="#b9c8cd" stroke-opacity="0.35">
      <rect x="28" y="30" width="92" height="70" rx="8"/>
      <rect x="134" y="30" width="92" height="70" rx="8"/>
      <rect x="240" y="30" width="92" height="70" rx="8"/>
      <rect x="28" y="116" width="92" height="70" rx="8"/>
      <rect x="134" y="116" width="92" height="70" rx="8"/>
      <rect x="240" y="116" width="92" height="70" rx="8"/>
      <rect x="28" y="202" width="92" height="70" rx="8"/>
      <rect x="134" y="202" width="92" height="70" rx="8"/>
      <rect x="240" y="202" width="92" height="70" rx="8"/>
      <rect x="28" y="288" width="92" height="70" rx="8"/>
      <rect x="134" y="288" width="92" height="70" rx="8"/>
      <rect x="240" y="288" width="92" height="70" rx="8"/>
    </g>
  </g>
  <g fill="#f8fbff">
    <text x="110" y="148" font-size="34" font-family="Pretendard, Noto Sans KR, sans-serif" opacity="0.78" letter-spacing="6">COLLECTED NAMES</text>
    <text x="110" y="718" font-size="90" font-weight="700" font-family="Pretendard, Noto Sans KR, sans-serif">수집된 이름들</text>
    <text x="110" y="784" font-size="28" font-family="Pretendard, Noto Sans KR, sans-serif" opacity="0.82">우편함마다 실종자의 이름이 눅눅하게 남아 있다</text>
  </g>
</svg>
