<svg xmlns="http://www.w3.org/2000/svg" viewBox="0 0 512 512" role="img" aria-label="연필 생각지도">
  <rect width="512" height="512" rx="92" fill="#cdbd98"/>
  <path d="M82 132c66-36 132-45 198-27 70 18 119 60 151 126" fill="none" stroke="#746c59" stroke-width="14" stroke-linecap="round" opacity=".35"/>
  <path d="M128 332c74 25 145 20 213-15 30-16 55-36 75-61" fill="none" stroke="#746c59" stroke-width="14" stroke-linecap="round" opacity=".28"/>
  <ellipse cx="256" cy="256" rx="112" ry="72" fill="#ded1af" stroke="#292923" stroke-width="15" transform="rotate(-5 256 256)"/>
  <ellipse cx="147" cy="162" rx="70" ry="44" fill="#ded1af" stroke="#9b493c" stroke-width="12" transform="rotate(7 147 162)"/>
  <ellipse cx="365" cy="176" rx="75" ry="46" fill="#ded1af" stroke="#49677a" stroke-width="12" transform="rotate(-8 365 176)"/>
  <ellipse cx="360" cy="358" rx="75" ry="46" fill="#ded1af" stroke="#65704a" stroke-width="12" transform="rotate(6 360 358)"/>
  <path d="M188 214c-24-20-45-35-65-45M319 214c21-17 43-28 69-34M316 303c21 18 42 34 64 49" fill="none" stroke="#292923" stroke-width="11" stroke-linecap="round" opacity=".7"/>
  <path d="M202 261c34-19 73-24 116-15M216 287c25 8 57 8 96-1" fill="none" stroke="#292923" stroke-width="13" stroke-linecap="round"/>
</svg>
